<svg xmlns="http://www.w3.org/2000/svg" xmlns:xlink="http://www.w3.org/1999/xlink" width="30" height="30" viewBox="0 0 30 30">
  <defs>
    <clipPath id="clip-path">
      <rect id="Rectangle_8463" data-name="Rectangle 8463" width="30" height="30" transform="translate(103 -1062)" fill="#edcf4e" stroke="#707070" stroke-width="1"/>
    </clipPath>
  </defs>
  <g id="android-icon" transform="translate(-103 1062)" clip-path="url(#clip-path)">
    <g id="android-logo" transform="translate(103 -1062)">
      <g id="Group_5481" data-name="Group 5481">
        <path id="Path_22358" data-name="Path 22358" d="M4.165,9.717a1.791,1.791,0,0,0-1.316.541,1.77,1.77,0,0,0-.541,1.3v7.752a1.847,1.847,0,0,0,1.857,1.857,1.763,1.763,0,0,0,1.307-.541A1.807,1.807,0,0,0,6,19.309V11.556a1.77,1.77,0,0,0-.541-1.3A1.771,1.771,0,0,0,4.165,9.717Z" fill="#edcf4e"/>
        <path id="Path_22359" data-name="Path 22359" d="M19.093,2.758,20.373.4a.237.237,0,0,0-.09-.361.25.25,0,0,0-.361.108l-1.3,2.38a9.043,9.043,0,0,0-7.248,0l-1.3-2.38A.25.25,0,0,0,9.718.036.237.237,0,0,0,9.628.4l1.28,2.361a7.9,7.9,0,0,0-3.1,2.768A6.99,6.99,0,0,0,6.653,9.411H23.329a6.992,6.992,0,0,0-1.154-3.885A7.938,7.938,0,0,0,19.093,2.758Zm-7.4,3.435a.676.676,0,0,1-.5.208.645.645,0,0,1-.487-.208.719.719,0,0,1,0-.991.648.648,0,0,1,.487-.207.7.7,0,0,1,.5,1.2Zm7.6,0A.647.647,0,0,1,18.8,6.4a.7.7,0,0,1,0-1.406.648.648,0,0,1,.487.207.719.719,0,0,1,0,.991Z" fill="#edcf4e"/>
        <path id="Path_22360" data-name="Path 22360" d="M6.725,22.067A1.969,1.969,0,0,0,8.708,24.05h1.334l.018,4.093a1.792,1.792,0,0,0,.541,1.316A1.77,1.77,0,0,0,11.9,30a1.847,1.847,0,0,0,1.857-1.857V24.05h2.488v4.093a1.857,1.857,0,1,0,3.713,0V24.05h1.352a1.969,1.969,0,0,0,1.965-1.983V10.06H6.725Z" fill="#edcf4e"/>
        <path id="Path_22361" data-name="Path 22361" d="M25.835,9.717a1.787,1.787,0,0,0-1.3.532A1.763,1.763,0,0,0,24,11.556v7.752a1.791,1.791,0,0,0,.541,1.316,1.771,1.771,0,0,0,1.3.541,1.846,1.846,0,0,0,1.857-1.857V11.556a1.763,1.763,0,0,0-.541-1.307A1.808,1.808,0,0,0,25.835,9.717Z" fill="#edcf4e"/>
      </g>
    </g>
  </g>
</svg>
