<svg xmlns="http://www.w3.org/2000/svg" xmlns:xlink="http://www.w3.org/1999/xlink" width="36" height="36" viewBox="0 0 36 36">
  <defs>
    <clipPath id="clip-path">
      <rect id="Rectangle_8461" data-name="Rectangle 8461" width="36" height="36" transform="translate(-2969 -1075)" fill="#fff" stroke="#707070" stroke-width="1"/>
    </clipPath>
  </defs>
  <g id="apk-img-sec" transform="translate(2969 1075)" clip-path="url(#clip-path)">
    <g id="apk" transform="translate(-2969 -1075)">
      <circle id="Ellipse_155" data-name="Ellipse 155" cx="18" cy="18" r="18" fill="#f2ca4b"/>
      <g id="Layer_x0020_1" transform="translate(7.516 7.516)">
        <g id="_225933176">
          <g id="Group_5478" data-name="Group 5478">
            <path id="_225934160" d="M31.964,21.974a.236.236,0,0,1-.234-.234V17.78l-5.536-5.536H17.039a1.518,1.518,0,0,0-1.512,1.512v7.977a.234.234,0,1,1-.468,0V13.77a1.981,1.981,0,0,1,1.98-1.98h9.248a.206.206,0,0,1,.163.071l5.671,5.671a.231.231,0,0,1,.071.163v4.052a.229.229,0,0,1-.227.227ZM30.218,33.088H17.032a1.981,1.981,0,0,1-1.98-1.98v-2.4a.234.234,0,0,1,.468,0v2.4a1.518,1.518,0,0,0,1.512,1.512H30.2a1.513,1.513,0,0,0,1.512-1.512v-2.4a.234.234,0,1,1,.468,0v2.4A1.978,1.978,0,0,1,30.218,33.088Z" transform="translate(-12.972 -11.79)" fill-rule="evenodd"/>
            <path id="_225934352" d="M38.223,17.929H34.5a2.184,2.184,0,0,1-2.179-2.179V12.024a.234.234,0,1,1,.468,0V15.75a1.711,1.711,0,0,0,1.71,1.71h3.726a.236.236,0,0,1,.234.234A.252.252,0,0,1,38.223,17.929Z" transform="translate(-19.231 -11.79)" fill-rule="evenodd"/>
            <path id="_225934256" d="M32.868,35.679a.236.236,0,0,1-.234-.234V28.56A1.06,1.06,0,0,0,31.577,27.5H13.316a1.06,1.06,0,0,0-1.057,1.057v6.884a.234.234,0,0,1-.468,0V28.56a1.521,1.521,0,0,1,1.519-1.519H31.57a1.521,1.521,0,0,1,1.519,1.519v6.884A.229.229,0,0,1,32.868,35.679Z" transform="translate(-11.79 -17.318)" fill-rule="evenodd"/>
            <path id="_225934664" d="M31.673,40.841h-.887a.234.234,0,0,1,0-.468h.887a.965.965,0,0,0,0-1.93H13.234a.965.965,0,1,0,0,1.93h.887a.234.234,0,1,1,0,.468h-.887a1.434,1.434,0,1,1,0-2.867H31.673a1.434,1.434,0,0,1,0,2.867Z" transform="translate(-11.794 -21.281)" fill-rule="evenodd"/>
            <path id="_225934712" d="M31.171,24.048h-13a.234.234,0,0,1,0-.468H31.178a.236.236,0,0,1,.234.234A.229.229,0,0,1,31.171,24.048Z" transform="translate(-14.017 -16.063)" fill-rule="evenodd"/>
            <path id="_225933344" d="M25.77,20.352h-7.6a.234.234,0,0,1,0-.468h7.6a.236.236,0,0,1,.234.234A.232.232,0,0,1,25.77,20.352Z" transform="translate(-14.017 -14.724)" fill-rule="evenodd"/>
            <path id="_225933992" d="M25.77,16.644h-7.6a.234.234,0,0,1,0-.468h7.6A.236.236,0,0,1,26,16.41.232.232,0,0,1,25.77,16.644Z" transform="translate(-14.017 -13.38)" fill-rule="evenodd"/>
            <path id="_225933896" d="M26.631,31.4h1.306a.738.738,0,0,0,0-1.476H26.631Zm1.306.461H26.4a.236.236,0,0,1-.234-.234V29.68a.236.236,0,0,1,.234-.234h1.54a1.21,1.21,0,0,1,1.207,1.207,1.2,1.2,0,0,1-1.207,1.207Z" transform="translate(-17 -18.19)" fill-rule="evenodd"/>
            <path id="_225933680" d="M26.407,34.921a.236.236,0,0,1-.234-.234V32.742a.234.234,0,0,1,.468,0v1.945A.246.246,0,0,1,26.407,34.921Z" transform="translate(-17.004 -19.3)" fill-rule="evenodd"/>
            <path id="_225933920" d="M34.632,34.922a.217.217,0,0,1-.142-.05l-2.512-1.945a.233.233,0,0,1,.284-.369L34.774,34.5a.236.236,0,0,1,.043.326A.246.246,0,0,1,34.632,34.922Z" transform="translate(-19.075 -19.301)" fill-rule="evenodd"/>
            <path id="_225933848" d="M32.13,33.819a.236.236,0,0,1-.234-.234V29.7a.234.234,0,0,1,.468,0v3.882A.246.246,0,0,1,32.13,33.819Z" transform="translate(-19.078 -18.198)" fill-rule="evenodd"/>
            <path id="_225933368" d="M32.131,31.861a.225.225,0,0,1-.185-.092.236.236,0,0,1,.043-.326L34.5,29.5a.233.233,0,1,1,.284.369l-2.512,1.945A.194.194,0,0,1,32.131,31.861Z" transform="translate(-19.079 -18.191)" fill-rule="evenodd"/>
            <path id="_225933536" d="M20.419,33.819a.128.128,0,0,1-.071-.014.231.231,0,0,1-.149-.291l1.256-3.882a.23.23,0,0,1,.44,0l1.256,3.882a.231.231,0,0,1-.44.142l-1.036-3.194-1.036,3.2a.256.256,0,0,1-.22.156Z" transform="translate(-14.834 -18.198)" fill-rule="evenodd"/>
            <path id="_225933704" d="M22.759,34.078H21.041a.234.234,0,0,1,0-.468h1.718a.236.236,0,0,1,.234.234A.241.241,0,0,1,22.759,34.078Z" transform="translate(-15.058 -19.699)" fill-rule="evenodd"/>
          </g>
          <path id="_225933440" d="M31.993,38.72H15.8v2.165A1.518,1.518,0,0,0,17.309,42.4H30.482a1.513,1.513,0,0,0,1.512-1.512Z" transform="translate(-13.242 -21.552)" fill="#62dbfb" fill-rule="evenodd"/>
          <g id="Group_5479" data-name="Group 5479" transform="translate(0.468 10.184)">
            <path id="_225932840" d="M24.966,30.845Zm-.092.17h0a.138.138,0,0,1,.007-.057.214.214,0,0,1,.064-.106c.007-.007.014-.007.014-.014a.245.245,0,0,0-.057.064.007.007,0,0,1-.007.007.237.237,0,0,0-.021.106Zm.234-2.172a.236.236,0,0,1,.234.234v1.469l2.136-1.654a.233.233,0,0,1,.284.369l-2.271,1.76,2.271,1.76a.234.234,0,0,1-.142.419.217.217,0,0,1-.142-.05L25.335,31.5v1.469a.234.234,0,1,1-.468,0V29.085a.249.249,0,0,1,.241-.241Zm5.94,5.429h.887a1.427,1.427,0,0,1,.965.376V28.823a1.06,1.06,0,0,0-1.057-1.057H13.582a1.06,1.06,0,0,0-1.057,1.057V34.65a1.427,1.427,0,0,1,.965-.376H31.048Zm-8.055-5.429a1.207,1.207,0,0,1,0,2.413H21.687v1.71a.234.234,0,1,1-.468,0V29.085a.236.236,0,0,1,.234-.234Zm-3.875.17.852,2.647c0,.007,0,.007.007.014l.4,1.228a.231.231,0,1,1-.44.142l-.348-1.072H18.209l-.348,1.072a.228.228,0,0,1-.22.163.128.128,0,0,1-.071-.014.231.231,0,0,1-.149-.291l.4-1.228c0-.007,0-.007.007-.014l.852-2.647a.228.228,0,0,1,.22-.163.232.232,0,0,1,.22.163Z" transform="translate(-12.524 -27.765)" fill="#fd481e" fill-rule="evenodd"/>
            <path id="_225932792" d="M28.2,31.668a.738.738,0,1,0,0-1.476H26.9v1.476Z" transform="translate(-17.734 -28.645)" fill="#fd481e" fill-rule="evenodd"/>
            <path id="_225932696" d="M22.75,32.677,22.2,31.016l-.539,1.661Z" transform="translate(-15.838 -28.944)" fill="#fd481e" fill-rule="evenodd"/>
          </g>
          <path id="_225932816" d="M15.793,21.775H31.982V18.184H28.49a2.184,2.184,0,0,1-2.179-2.179V12.513H17.3a1.518,1.518,0,0,0-1.512,1.512Zm14.6-1.739h-13a.234.234,0,0,1,0-.468H30.4a.236.236,0,0,1,.234.234A.229.229,0,0,1,30.392,20.036Zm-5.4-2.356h-7.6a.234.234,0,1,1,0-.468h7.6a.236.236,0,0,1,.234.234A.232.232,0,0,1,24.991,17.68Zm0-2.363h-7.6a.234.234,0,1,1,0-.468h7.6a.236.236,0,0,1,.234.234A.232.232,0,0,1,24.991,15.317Z" transform="translate(-13.238 -12.052)" fill="#62dbfb" fill-rule="evenodd"/>
          <path id="_225933248" d="M33.053,16.213a1.711,1.711,0,0,0,1.71,1.71h3.165l-4.876-4.876Z" transform="translate(-19.498 -12.246)" fill="#17ace8" fill-rule="evenodd"/>
          <path id="_225932672" d="M42.6,38.72h-.653v1.93H42.6a.965.965,0,0,0,0-1.93Z" transform="translate(-22.722 -21.552)" fill="#fd481e" fill-rule="evenodd"/>
          <path id="_225932744" d="M14.154,40.65V38.72H13.5a.965.965,0,0,0,0,1.93Z" transform="translate(-12.06 -21.552)" fill="#fd481e" fill-rule="evenodd"/>
        </g>
      </g>
    </g>
  </g>
</svg>
