<svg xmlns="http://www.w3.org/2000/svg" xmlns:xlink="http://www.w3.org/1999/xlink" width="16" height="16" viewBox="0 0 16 16">
  <defs>
    <clipPath id="clip-path">
      <rect id="Rectangle_8464" data-name="Rectangle 8464" width="16" height="16" transform="translate(155 -1060)" fill="#fff" stroke="#707070" stroke-width="1"/>
    </clipPath>
  </defs>
  <g id="close-icon" transform="translate(-155 1060)" clip-path="url(#clip-path)">
    <g id="close_2_" data-name="close (2)" transform="translate(155 -1060)">
      <g id="close_1_">
        <path id="Path_22362" data-name="Path 22362" d="M1.517,15.9a1.516,1.516,0,0,1-1.076-.364,1.516,1.516,0,0,1,0-2.137L13.308.532A1.516,1.516,0,0,1,15.52,2.593L2.578,15.536a1.515,1.515,0,0,1-1.061.364Z"/>
        <path id="Path_22363" data-name="Path 22363" d="M14.368,15.9a1.516,1.516,0,0,1-1.061-.439L.441,2.593A1.516,1.516,0,0,1,2.578.456L15.52,13.323a1.516,1.516,0,0,1,.071,2.142q-.034.036-.071.071a1.516,1.516,0,0,1-1.152.364Z"/>
      </g>
    </g>
  </g>
</svg>
