<svg xmlns="http://www.w3.org/2000/svg" xmlns:xlink="http://www.w3.org/1999/xlink" width="40" height="40" viewBox="0 0 40 40">
  <defs>
    <clipPath id="clip-path">
      <rect id="Rectangle_8229" data-name="Rectangle 8229" width="40" height="40" transform="translate(-0.408 0)" fill="#fff" stroke="#707070" stroke-width="1"/>
    </clipPath>
  </defs>
  <g id="demo-id" transform="translate(0.408 0)" clip-path="url(#clip-path)">
    <path id="path4" d="M37.142,42.857h4.286a1.429,1.429,0,0,0,1.429-1.429V37.142a1.429,1.429,0,1,0-2.857,0V40H37.142a1.429,1.429,0,1,0,0,2.857ZM8.57,40H5.713V37.142a1.429,1.429,0,1,0-2.857,0v4.286a1.429,1.429,0,0,0,1.429,1.429H8.57A1.429,1.429,0,1,0,8.57,40ZM10,37.142H35.713a1.429,1.429,0,0,0,1.429-1.429c0-3.963-1.733-6.479-3.3-7.65a4.2,4.2,0,0,0-2.41-.921,8.3,8.3,0,0,0-3.791.979,9.661,9.661,0,0,1-4.78,1.4,11.088,11.088,0,0,1-5.19-1.407,7.939,7.939,0,0,0-3.381-.974,4.124,4.124,0,0,0-2.446,1A9.647,9.647,0,0,0,8.57,35.714,1.429,1.429,0,0,0,10,37.142ZM31.157,20H14.077a15.049,15.049,0,0,0,2.556,4.1,8.2,8.2,0,0,0,5.984,3.046A8.2,8.2,0,0,0,28.6,24.1,15.01,15.01,0,0,0,31.157,20ZM7.142,18.571H38.57a1.429,1.429,0,1,0,0-2.857H7.142a1.429,1.429,0,0,0,0,2.857Zm5.716-4.286H32.379a9.975,9.975,0,0,0-9.761-10,9.974,9.974,0,0,0-9.76,10ZM8.57,2.857H4.284A1.429,1.429,0,0,0,2.856,4.285V8.571a1.429,1.429,0,0,0,2.857,0V5.714H8.57a1.429,1.429,0,1,0,0-2.857ZM37.142,5.714H40V8.571a1.429,1.429,0,1,0,2.857,0V4.285a1.429,1.429,0,0,0-1.429-1.429H37.142a1.429,1.429,0,1,0,0,2.857Z" transform="translate(-2.856 -2.857)" fill="#fff" fill-rule="evenodd"/>
  </g>
</svg>
