<svg xmlns="http://www.w3.org/2000/svg" xmlns:xlink="http://www.w3.org/1999/xlink" width="22" height="22" viewBox="0 0 22 22">
  <defs>
    <clipPath id="clip-path">
      <rect id="Rectangle_7794" data-name="Rectangle 7794" width="22" height="22" fill="#fff" stroke="#707070" stroke-width="1"/>
    </clipPath>
  </defs>
  <g id="facebook-icon" clip-path="url(#clip-path)">
    <g id="_x30_1._Facebook" transform="translate(5.053 0)">
      <path id="Icon_11_" d="M11.12,15.171H8.387c-.43,0-.584-.155-.584-.588q0-1.668,0-3.335c0-.427.163-.59.587-.591h2.73c0-.076,0-1.681,0-2.421a6.036,6.036,0,0,1,.751-3.1A4.559,4.559,0,0,1,14.327,3.1a6.071,6.071,0,0,1,2.1-.349q1.352,0,2.7,0c.387,0,.559.172.56.562q0,1.569,0,3.137c0,.394-.165.553-.562.557-.739.008-1.478,0-2.216.033A1,1,0,0,0,15.78,8.177c-.018.816-.007,1.633-.007,2.479h3.183c.45,0,.6.155.6.608q0,1.659,0,3.318c0,.446-.145.589-.6.589h-3.2v8.95c0,.477-.15.629-.621.629H11.7c-.416,0-.578-.162-.578-.578,0-2.915,0-8.9,0-9Z" transform="translate(-7.803 -2.75)" fill="#fff"/>
    </g>
  </g>
</svg>
