<svg xmlns="http://www.w3.org/2000/svg" xmlns:xlink="http://www.w3.org/1999/xlink" width="40" height="40" viewBox="0 0 40 40">
  <defs>
    <clipPath id="clip-path">
      <rect id="Rectangle_8229" data-name="Rectangle 8229" width="40" height="40" transform="translate(-0.296 0)" fill="#fff" stroke="#707070" stroke-width="1"/>
    </clipPath>
  </defs>
  <g id="get-id-icon" transform="translate(0.296 0)" clip-path="url(#clip-path)">
    <g id="Layer_7" transform="translate(-3.152 -2.857)">
      <path id="Path_22103" data-name="Path 22103" d="M22.856,2.857A20,20,0,1,0,28.47,42.043,9.6,9.6,0,0,1,42.043,28.47,19.973,19.973,0,0,0,22.856,2.857ZM16.381,17.332a7.649,7.649,0,0,0-1.207,4.136V28.94a1.286,1.286,0,0,1-2.571,0V21.468a10.22,10.22,0,0,1,1.613-5.523,1.286,1.286,0,0,1,2.166,1.387Zm7.761,15.881a1.286,1.286,0,0,1-2.571,0V25.965a1.286,1.286,0,0,1,2.571,0Zm0-11.147a1.286,1.286,0,1,1-2.571,0v-.6a1.286,1.286,0,0,1,2.571,0Zm4.486,2.89a1.286,1.286,0,0,1-2.571,0V21.471a3.2,3.2,0,1,0-6.4,0v10.4a1.286,1.286,0,1,1-2.571,0v-10.4a5.771,5.771,0,0,1,11.542,0Zm3.2-2.2a1.286,1.286,0,0,1-1.286-1.286,7.688,7.688,0,0,0-10.874-6.991,1.286,1.286,0,0,1-1.07-2.338,10.26,10.26,0,0,1,14.515,9.33A1.286,1.286,0,0,1,31.825,22.753Z" fill="#fff"/>
      <path id="Path_22104" data-name="Path 22104" d="M35.387,27.92a7.468,7.468,0,1,0,7.468,7.467,7.468,7.468,0,0,0-7.468-7.467Zm3.346,7.2-3.646,2.937a1.281,1.281,0,0,1-.806.284,1.246,1.246,0,0,1-.146-.009,1.28,1.28,0,0,1-.866-.484l-1.433-1.827a1.286,1.286,0,0,1,2.024-1.587l.629.8,2.631-2.12a1.285,1.285,0,1,1,1.611,2Z" fill="#fff"/>
    </g>
  </g>
</svg>
