<svg xmlns="http://www.w3.org/2000/svg" xmlns:xlink="http://www.w3.org/1999/xlink" width="22" height="22" viewBox="0 0 22 22">
  <defs>
    <clipPath id="clip-path">
      <rect id="Rectangle_7794" data-name="Rectangle 7794" width="22" height="22" transform="translate(0.078)" fill="#fff" stroke="#707070" stroke-width="1"/>
    </clipPath>
  </defs>
  <g id="instagram-icon" transform="translate(-0.078)" clip-path="url(#clip-path)">
    <g id="instagram" transform="translate(0 0)">
      <path id="Path_4784" data-name="Path 4784" d="M21.934,6.465a8.076,8.076,0,0,0-.511-2.67,5.391,5.391,0,0,0-1.269-1.948A5.393,5.393,0,0,0,18.205.577a8.074,8.074,0,0,0-2.67-.511C14.362.013,13.987,0,11,0S7.638.013,6.465.066a8.077,8.077,0,0,0-2.67.511A5.391,5.391,0,0,0,1.846,1.846,5.392,5.392,0,0,0,.577,3.794a8.075,8.075,0,0,0-.511,2.67C.013,7.638,0,8.012,0,11s.013,3.362.066,4.535a8.074,8.074,0,0,0,.511,2.67,5.39,5.39,0,0,0,1.269,1.948,5.39,5.39,0,0,0,1.948,1.269,8.071,8.071,0,0,0,2.67.511C7.638,21.987,8.013,22,11,22s3.362-.013,4.535-.066a8.072,8.072,0,0,0,2.67-.511,5.624,5.624,0,0,0,3.217-3.217,8.073,8.073,0,0,0,.511-2.67C21.987,14.362,22,13.987,22,11s-.013-3.362-.066-4.535Zm-1.98,8.98a6.086,6.086,0,0,1-.379,2.043,3.643,3.643,0,0,1-2.088,2.088,6.086,6.086,0,0,1-2.043.379c-1.16.053-1.508.064-4.445.064s-3.285-.011-4.445-.064a6.088,6.088,0,0,1-2.043-.379,3.409,3.409,0,0,1-1.265-.823,3.408,3.408,0,0,1-.823-1.265,6.086,6.086,0,0,1-.379-2.043c-.053-1.16-.064-1.508-.064-4.445s.011-3.285.064-4.445a6.091,6.091,0,0,1,.379-2.043,3.41,3.41,0,0,1,.823-1.265,3.406,3.406,0,0,1,1.265-.823,6.085,6.085,0,0,1,2.043-.379c1.16-.053,1.508-.064,4.445-.064h0c2.937,0,3.285.011,4.445.064a6.087,6.087,0,0,1,2.043.379,3.411,3.411,0,0,1,1.265.823,3.406,3.406,0,0,1,.823,1.265,6.081,6.081,0,0,1,.379,2.043c.053,1.16.064,1.508.064,4.445s-.011,3.285-.064,4.445Zm0,0" transform="translate(0 0)" fill="#fff"/>
      <path id="Path_4785" data-name="Path 4785" d="M11,5.351A5.649,5.649,0,1,0,16.649,11,5.649,5.649,0,0,0,11,5.351Zm0,9.315A3.667,3.667,0,1,1,14.667,11,3.667,3.667,0,0,1,11,14.667Zm0,0" transform="translate(0 0)" fill="#fff"/>
      <path id="Path_4786" data-name="Path 4786" d="M18.192,5.128a1.32,1.32,0,1,1-1.32-1.32,1.32,1.32,0,0,1,1.32,1.32Zm0,0" transform="translate(0 0)" fill="#fff"/>
    </g>
  </g>
</svg>
