<svg xmlns="http://www.w3.org/2000/svg" xmlns:xlink="http://www.w3.org/1999/xlink" width="22" height="22" viewBox="0 0 22 22">
  <defs>
    <clipPath id="clip-path">
      <rect id="Rectangle_7794" data-name="Rectangle 7794" width="22" height="22" transform="translate(0.235)" fill="#fff" stroke="#707070" stroke-width="1"/>
    </clipPath>
  </defs>
  <g id="linkedin-icon" transform="translate(-0.235)" clip-path="url(#clip-path)">
    <g id="_x31_0.Linkedin">
      <path id="Path_4787" data-name="Path 4787" d="M24.745,24.75h.005V16.681c0-3.947-.85-6.988-5.464-6.988a4.791,4.791,0,0,0-4.315,2.371h-.064v-2H10.532V24.749h4.556V17.476c0-1.915.363-3.767,2.734-3.767,2.337,0,2.371,2.185,2.371,3.889V24.75Z" transform="translate(-2.75 -2.75)" fill="#fff"/>
      <path id="Path_4788" data-name="Path 4788" d="M3.113,10.062H7.674V24.75H3.113Z" transform="translate(-2.75 -2.75)" fill="#fff"/>
      <path id="Path_4789" data-name="Path 4789" d="M5.392,2.75A2.654,2.654,0,1,0,8.034,5.392,2.643,2.643,0,0,0,5.392,2.75Z" transform="translate(-2.75 -2.75)" fill="#fff"/>
    </g>
  </g>
</svg>
