<svg xmlns="http://www.w3.org/2000/svg" xmlns:xlink="http://www.w3.org/1999/xlink" width="35" height="42.198" viewBox="0 0 35 42.198">
  <defs>
    <linearGradient id="linear-gradient" x1="0.325" y1="0.742" x2="0.679" y2="0.149" gradientUnits="objectBoundingBox">
      <stop offset="0" stop-color="#4556e5"/>
      <stop offset="1" stop-color="#232b73"/>
    </linearGradient>
  </defs>
  <g id="medal3" transform="translate(-43.667)">
    <path id="Path_4819" data-name="Path 4819" d="M291.1,317.446l-4.943-11.2-10.861,6,4.506,10.221a1.237,1.237,0,0,0,1.13.734,1.508,1.508,0,0,0,1.135-.747l2.213-5.132,5.293,1.8a1.237,1.237,0,0,0,1.527-1.673Z" transform="translate(-212.535 -281.004)" fill="url(#linear-gradient)"/>
    <path id="Path_4820" data-name="Path 4820" d="M48.717,306.244l-4.943,11.2a1.237,1.237,0,0,0,1.527,1.673l5.293-1.8,2.213,5.132a1.515,1.515,0,0,0,1.135.747,1.238,1.238,0,0,0,1.13-.734l4.506-10.221Z" transform="translate(0 -281.004)" fill="url(#linear-gradient)"/>
    <path id="Path_4821" data-name="Path 4821" d="M77.072,0A16.113,16.113,0,1,0,93.143,16.154,16.161,16.161,0,0,0,77.072,0Z" transform="translate(-15.904)" fill="#e4914b"/>
    <path id="Path_4822" data-name="Path 4822" d="M272.072,16.154A16.161,16.161,0,0,0,256,0V32.225A16.09,16.09,0,0,0,272.072,16.154Z" transform="translate(-194.833)" fill="#e0823a"/>
    <text id="_3" data-name="3" transform="translate(53.667 26)" fill="#7e3700" font-size="24" font-family="Shackleton-Regular, Shackleton"><tspan x="0" y="0">3</tspan></text>
  </g>
</svg>
