<svg xmlns="http://www.w3.org/2000/svg" width="35" height="42.198" viewBox="0 0 35 42.198">
  <g id="medal1" transform="translate(-43.667)">
    <path id="Path_4819" data-name="Path 4819" d="M291.1,317.446l-4.943-11.2-10.861,6,4.506,10.221a1.237,1.237,0,0,0,1.13.734,1.508,1.508,0,0,0,1.135-.747l2.213-5.132,5.293,1.8a1.237,1.237,0,0,0,1.527-1.673Z" transform="translate(-212.535 -281.004)" fill="#ff435b"/>
    <path id="Path_4820" data-name="Path 4820" d="M48.717,306.244l-4.943,11.2a1.237,1.237,0,0,0,1.527,1.673l5.293-1.8,2.213,5.132a1.515,1.515,0,0,0,1.135.747,1.238,1.238,0,0,0,1.13-.734l4.506-10.221Z" transform="translate(0 -281.004)" fill="#ff7b4a"/>
    <path id="Path_4821" data-name="Path 4821" d="M77.072,0A16.113,16.113,0,1,0,93.143,16.154,16.161,16.161,0,0,0,77.072,0Z" transform="translate(-15.904)" fill="#ffde46"/>
    <path id="Path_4822" data-name="Path 4822" d="M272.072,16.154A16.161,16.161,0,0,0,256,0V32.225A16.09,16.09,0,0,0,272.072,16.154Z" transform="translate(-194.833)" fill="#fabe2c"/>
    <path id="Path_4823" data-name="Path 4823" d="M1.824,0H8.568V-.048A1.983,1.983,0,0,1,7.032-2.04V-16.968h-.84C4.968-14.28,3-12.984.288-12v.552H3.36V-2.04A1.983,1.983,0,0,1,1.824-.048Z" transform="translate(55.667 24.099)" fill="#fd5522"/>
  </g>
</svg>
