<svg xmlns="http://www.w3.org/2000/svg" xmlns:xlink="http://www.w3.org/1999/xlink" width="24" height="24" viewBox="0 0 24 24">
  <defs>
    <clipPath id="clip-path">
      <rect id="Rectangle_8465" data-name="Rectangle 8465" width="24" height="24" transform="translate(193 -1053)" fill="#fff" stroke="#707070" stroke-width="1"/>
    </clipPath>
  </defs>
  <g id="menu-img" transform="translate(-193 1053)" clip-path="url(#clip-path)">
    <path id="menu_2_" data-name="menu (2)" d="M6,4.8A1.2,1.2,0,0,1,7.2,3.6H22.8a1.2,1.2,0,1,1,0,2.4H7.2A1.2,1.2,0,0,1,6,4.8Zm16.8,6H1.2a1.2,1.2,0,0,0,0,2.4H22.8a1.2,1.2,0,0,0,0-2.4Zm0,7.2H12a1.2,1.2,0,1,0,0,2.4H22.8a1.2,1.2,0,0,0,0-2.4Z" transform="translate(193 -1053)" fill="#fff"/>
  </g>
</svg>
