<svg xmlns="http://www.w3.org/2000/svg" xmlns:xlink="http://www.w3.org/1999/xlink" width="22" height="22" viewBox="0 0 22 22">
  <defs>
    <clipPath id="clip-path">
      <rect id="Rectangle_7794" data-name="Rectangle 7794" width="22" height="22" transform="translate(0.156)" fill="#fff" stroke="#707070" stroke-width="1"/>
    </clipPath>
  </defs>
  <g id="twitter-icon" transform="translate(-0.156)" clip-path="url(#clip-path)">
    <path id="_x30_4.Twitter" d="M24.75,6.929a9.4,9.4,0,0,1-2.6.712,4.485,4.485,0,0,0,1.984-2.493,9.013,9.013,0,0,1-2.86,1.092,4.51,4.51,0,0,0-7.8,3.084,4.644,4.644,0,0,0,.1,1.029,12.766,12.766,0,0,1-9.3-4.718,4.517,4.517,0,0,0,1.386,6.028,4.454,4.454,0,0,1-2.038-.556,4.547,4.547,0,0,0,3.613,4.481,4.476,4.476,0,0,1-2.036.071A4.553,4.553,0,0,0,9.421,18.8,9.044,9.044,0,0,1,2.75,20.663a12.7,12.7,0,0,0,6.919,2.024A12.748,12.748,0,0,0,22.506,9.853c0-.2-.007-.392-.016-.583a9,9,0,0,0,2.26-2.342Z" transform="translate(-2.75 -2.75)" fill="#fff"/>
  </g>
</svg>
