<svg xmlns="http://www.w3.org/2000/svg" width="161.407" height="160" viewBox="0 0 161.407 160">
  <g id="user-img" transform="translate(-429.362 -3162)">
    <rect id="Rectangle_8453" data-name="Rectangle 8453" width="160" height="160" transform="translate(430 3162)" fill="none"/>
    <g id="Group_5472" data-name="Group 5472" transform="translate(-1323.924 1951.205)">
      <path id="Subtraction_12" data-name="Subtraction 12" d="M160,47.974H0C2.6,37.406,5.883,29.668,10.336,23.622A43.378,43.378,0,0,1,18.1,15.533a61.211,61.211,0,0,1,10.066-6.5A126.164,126.164,0,0,1,42.69,3.823,148.434,148.434,0,0,1,58.985,0a8.8,8.8,0,0,0,.206,2.983c3.34,9.6,10.965,15.809,19.426,15.809,8.122,0,15.24-5.66,19.529-15.53A5.46,5.46,0,0,0,98.392.519a133.4,133.4,0,0,1,26.545,8.728,86.506,86.506,0,0,1,13.217,7.28,55.443,55.443,0,0,1,10.011,8.608,47.917,47.917,0,0,1,7.163,10.346A59.282,59.282,0,0,1,160,47.973Z" transform="translate(1753.924 1316.729)" fill="#eed233" stroke="rgba(0,0,0,0)" stroke-miterlimit="10" stroke-width="1"/>
      <path id="Path_22346" data-name="Path 22346" d="M1881.465,1341.746c-2.046-3.921-1.757-5.559-2.322-5.547-4.135.087-7.688-9.014-8.226-10.918-1.072-3.786-.024-11.71,5.566-9.4,8.943,3.7-18.448-30.1,32.433-29.913,50.872-.188,23.5,33.61,32.432,29.913,5.592-2.312,6.638,5.612,5.566,9.4-.538,1.9-3.217,11.7-7.35,11.609-.565-.011.536-1.046-1.231,3-3.723,8.531-8.013,11.823-12.078,16.72-12.5,15.047-21.956,12.363-33.928-1.239-3.915-4.45-7.044-6.314-10.862-13.628" transform="translate(-77.402 -40.904)" fill="none" stroke="#eed233" stroke-width="1" fill-rule="evenodd"/>
      <path id="Path_22347" data-name="Path 22347" d="M1881.68,1392.1a2.914,2.914,0,0,0-.526-2.524.716.716,0,0,0-.426-.233.422.422,0,0,0-.331.138,3.191,3.191,0,0,0-.409,2.481,14.019,14.019,0,0,0,1.477,4.163,11.582,11.582,0,0,1,1.514,4.814l-.87-.019a11.125,11.125,0,0,0-1.44-4.449,14.581,14.581,0,0,1-1.549-4.426c-.166-1.643.159-2.662.655-3.15a1.278,1.278,0,0,1,1.028-.39,1.583,1.583,0,0,1,.976.484,3.718,3.718,0,0,1,.765,3.241Z" transform="translate(-83.206 -110.637)" fill="#eed233"/>
      <path id="Path_22348" data-name="Path 22348" d="M2092.288,1397.15a2.929,2.929,0,0,1,.63-2.5.737.737,0,0,1,.434-.216.42.42,0,0,1,.326.153c.323.344.5,1.137.307,2.494a14.021,14.021,0,0,1-1.649,4.1,11.634,11.634,0,0,0-1.712,4.752l.872.013a11.166,11.166,0,0,1,1.621-4.389,14.575,14.575,0,0,0,1.73-4.362c.235-1.636-.048-2.666-.523-3.174a1.273,1.273,0,0,0-1.009-.429,1.6,1.6,0,0,0-1,.446,3.729,3.729,0,0,0-.9,3.209Z" transform="translate(-227.079 -114.098)" fill="#eed233"/>
      <path id="Path_22349" data-name="Path 22349" d="M1906.418,1244.983a51.473,51.473,0,0,1-9.1,4.745c-5.623,2.217,7.353-13.819-.072-8.427-2.15,1.562-11.378,7.13-11.378,6.993,0-22.567-8.581,23.63-9.015,12.788-.264-6.583-10.1-2.988-9.491-29.828.335-14.822,17.43-32.392,33.157-27.789,2.761.807-2-4.024,1.314-3.374,2,.393,5.526,2.649,8,2.906,5.882.61,4.631-.079-.948-4.365-4.422-3.4,13.953,6.53,13.953,4.971,0-10.548,2.054-4.54,4.056,2.346,2.522,8.664,5.6,14.361,2.806,21.042-3.719,8.9-18.763,15.078-23.279,17.992" transform="translate(-75.221 19)" fill="#eed233" fill-rule="evenodd"/>
      <path id="Path_22350" data-name="Path 22350" d="M2043.633,1241.341c19.94-3.418,21.876,27.164,17.813,19.8-2.352-4.261,3.563,15.838-.752,17.831-.629,3.342-6.241,9.527-6.241,9.391,0-1.891-1.417-19.678-2.059-19.477-4.951,1.564-17.033-26.125-8.761-27.543" transform="translate(-193.204 -10.371)" fill="#eed233" fill-rule="evenodd"/>
    </g>
  </g>
</svg>
