<svg xmlns="http://www.w3.org/2000/svg" xmlns:xlink="http://www.w3.org/1999/xlink" width="30.03" height="30.007" viewBox="0 0 30.03 30.007">
  <defs>
    <clipPath id="clip-path">
      <path id="Path_39198" data-name="Path 39198" d="M422.411,65.957c.356-1.233.689-2.488,1.078-3.766a.915.915,0,0,0-.155-.879,12.224,12.224,0,0,1,.442-13.865,11.888,11.888,0,0,1,12.66-4.851,11.7,11.7,0,0,1,9.505,9.392,12.273,12.273,0,0,1-10.033,14.871,6.06,6.06,0,0,1-1.726.148,12.96,12.96,0,0,1-6.751-1.711.791.791,0,0,0-.764-.126c-1.354.33-2.673.684-4.015,1.027a.658.658,0,0,1-.186.042c-.1,0-.1-.082-.056-.282m8.53-25.883a14.857,14.857,0,0,0-10.251,21.7.93.93,0,0,1,.138.73c-.7,2.271-1.343,4.622-1.963,6.916-.1.411-.1.411.281.3,2.427-.651,4.83-1.267,7.251-1.861a.592.592,0,0,1,.539.035,15.165,15.165,0,0,0,9.831,1.369A14.877,14.877,0,0,0,433.8,39.777a18.569,18.569,0,0,0-2.863.3" transform="translate(-418.808 -39.777)" fill="none"/>
    </clipPath>
    <clipPath id="clip-path-2">
      <path id="Path_39199" data-name="Path 39199" d="M430.2,50.9a4.131,4.131,0,0,0-1.363,4.051,8.561,8.561,0,0,0,1.758,3.563,15.341,15.341,0,0,0,8.194,6.012,4.051,4.051,0,0,0,1.572.221,2.73,2.73,0,0,0,1.009-.035c1.387-.4,2.6-1.2,2.7-2.775.087-.8.087-.859-.661-1.23a4.92,4.92,0,0,1-.511-.232c-.708-.325-1.439-.673-2.181-1.021a.654.654,0,0,0-.842.22c-.36.476-.743.963-1.131,1.4a.581.581,0,0,1-.779.175,10.13,10.13,0,0,1-5.171-4.434.575.575,0,0,1,.094-.836,5.878,5.878,0,0,0,.928-1.242.8.8,0,0,0,.064-.639c-.435-1.033-.894-2.031-1.323-3.1a2.015,2.015,0,0,0-.337-.418,1.4,1.4,0,0,0-.592-.1,2.38,2.38,0,0,0-1.427.418" transform="translate(-428.739 -50.484)" fill="none"/>
    </clipPath>
  </defs>
  <g id="whasapp-icon" transform="translate(-11445.807 -2403.776)">
    <g id="Group_23221" data-name="Group 23221" transform="translate(11445.808 2403.777)">
      <g id="Group_23189" data-name="Group 23189" clip-path="url(#clip-path)">
        <path id="Path_45529" data-name="Path 45529" d="M.251.254,45.876.369l.112,44.66L.363,44.915Z" transform="matrix(0.805, -0.593, 0.593, 0.805, -17.725, 10.522)" fill="#fff"/>
      </g>
    </g>
    <g id="Group_23222" data-name="Group 23222" transform="translate(11453.146 2411.623)">
      <g id="Group_23191" data-name="Group 23191" clip-path="url(#clip-path-2)">
        <rect id="Rectangle_14313" data-name="Rectangle 14313" width="21.079" height="20.797" transform="matrix(0.805, -0.593, 0.593, 0.805, -7.056, 5.028)" fill="#fff"/>
      </g>
    </g>
  </g>
</svg>
