<svg xmlns="http://www.w3.org/2000/svg" xmlns:xlink="http://www.w3.org/1999/xlink" width="95.62" height="58.467" viewBox="0 0 95.62 58.467">
  <defs>
    <clipPath id="clip-path">
      <path id="Path_22107" data-name="Path 22107" d="M76.639,121.4q7.826,13.527,15.628,27.053H156.63c-.253-.457-.507-.913-.785-1.394q-16.377-28.382-32.777-56.79H92.925c-9.543,0-16.675-.283-21.749-.283-17.107,0-10.81,3.225,5.463,31.414" fill="none"/>
    </clipPath>
    <linearGradient id="linear-gradient" x1="-0.527" y1="7.44" x2="-0.517" y2="7.44" gradientUnits="objectBoundingBox">
      <stop offset="0" stop-color="#01cd2c"/>
      <stop offset="1" stop-color="#009805"/>
    </linearGradient>
  </defs>
  <g id="whatsapp-icon" transform="translate(-61.01 -89.986)">
    <g id="Group_5465" data-name="Group 5465">
      <g id="Group_5460" data-name="Group 5460">
        <g id="Group_5459" data-name="Group 5459" clip-path="url(#clip-path)">
          <rect id="Rectangle_8452" data-name="Rectangle 8452" width="102.561" height="58.467" transform="translate(54.069 89.986)" fill="url(#linear-gradient)"/>
        </g>
      </g>
      <g id="Group_5462" data-name="Group 5462">
        <g id="Group_5466" data-name="Group 5466">
          <path id="Path_22108" data-name="Path 22108" d="M90.662,135.01c.045-.182.088-.3.123-.414.91-2.755,1.829-5.484,2.763-8.234a.7.7,0,0,0-.068-.646A16.72,16.72,0,0,1,105,100.966a16.753,16.753,0,0,1,19.617,14.7,16.7,16.7,0,0,1-8.634,16.423A16.24,16.24,0,0,1,108.9,134.1a16.654,16.654,0,0,1-8.633-1.849.735.735,0,0,0-.691-.062c-2.833.924-5.685,1.814-8.528,2.727a3,3,0,0,1-.389.1m4.327-4.278c.245-.069.379-.1.5-.132,1.473-.485,2.958-.975,4.441-1.447a.809.809,0,0,1,.653.061,13.548,13.548,0,0,0,9.086,2.03,13.021,13.021,0,0,0,7.716-3.545,13.488,13.488,0,0,0,4.324-12.726,13.71,13.71,0,0,0-6.223-9.306,13.849,13.849,0,0,0-6.808-2.194,13.207,13.207,0,0,0-8.262,2.257,13.644,13.644,0,0,0-6.391,11.653,13.39,13.39,0,0,0,2.427,7.872.772.772,0,0,1,.114.823c-.371,1.039-.708,2.072-1.069,3.123-.157.485-.308.949-.511,1.531" fill="#fff" fill-rule="evenodd"/>
          <path id="Path_22109" data-name="Path 22109" d="M99.916,113.744a4.614,4.614,0,0,1,1.535-3.437,1.716,1.716,0,0,1,1.2-.449c1.207-.036,1.207-.036,1.686,1.107.362.879.733,1.78,1.1,2.658a.78.78,0,0,1-.018.805,15.263,15.263,0,0,1-.99,1.287.693.693,0,0,0-.087.941,11.008,11.008,0,0,0,5.534,4.736.612.612,0,0,0,.794-.173c.407-.5.822-.981,1.2-1.468.317-.415.474-.5.916-.319,1.148.536,2.278,1.082,3.4,1.635.333.152.3.457.3.727-.089,1.779-.893,2.679-2.949,3.323a5.047,5.047,0,0,1-3.012-.255,15.393,15.393,0,0,1-8.678-6.5A9.956,9.956,0,0,1,100.118,115c-.087-.424-.132-.838-.2-1.253" fill="#fff" fill-rule="evenodd"/>
        </g>
      </g>
    </g>
  </g>
</svg>
